<svg width="41" height="41" viewBox="0 0 41 41" fill="none" xmlns="http://www.w3.org/2000/svg">
<path d="M28.7 5.63748C28.7 5.22971 28.862 4.83864 29.1503 4.5503C29.4387 4.26196 29.8297 4.09998 30.2375 4.09998H35.3625C35.7703 4.09998 36.1613 4.26196 36.4497 4.5503C36.738 4.83864 36.9 5.22971 36.9 5.63748V10.7625C36.9 11.1702 36.738 11.5613 36.4497 11.8497C36.1613 12.138 35.7703 12.3 35.3625 12.3C34.9547 12.3 34.5637 12.138 34.2753 11.8497C33.987 11.5613 33.825 11.1702 33.825 10.7625V9.34798L24.6615 18.5115C24.3732 18.7994 23.9824 18.9611 23.575 18.9611C23.1676 18.9611 22.7768 18.7994 22.4885 18.5115L17.425 13.448L8.774 22.099C8.63324 22.25 8.4635 22.3712 8.2749 22.4552C8.08631 22.5393 7.88271 22.5844 7.67627 22.5881C7.46983 22.5917 7.26477 22.5538 7.07333 22.4764C6.88188 22.3991 6.70797 22.284 6.56197 22.138C6.41597 21.992 6.30088 21.8181 6.22355 21.6266C6.14622 21.4352 6.10825 21.2301 6.11189 21.0237C6.11553 20.8173 6.16072 20.6137 6.24475 20.4251C6.32878 20.2365 6.44994 20.0667 6.601 19.926L16.3385 10.1885C16.6268 9.90055 17.0176 9.73883 17.425 9.73883C17.8324 9.73883 18.2232 9.90055 18.5115 10.1885L23.575 15.252L31.652 7.17498H30.2375C29.8297 7.17498 29.4387 7.01299 29.1503 6.72465C28.862 6.43632 28.7 6.04525 28.7 5.63748ZM7.6875 28.7C8.09527 28.7 8.48634 28.862 8.77468 29.1503C9.06301 29.4386 9.225 29.8297 9.225 30.2375V35.3625C9.225 35.7702 9.06301 36.1613 8.77468 36.4497C8.48634 36.738 8.09527 36.9 7.6875 36.9C7.27973 36.9 6.88866 36.738 6.60032 36.4497C6.31199 36.1613 6.15 35.7702 6.15 35.3625V30.2375C6.15 29.8297 6.31199 29.4386 6.60032 29.1503C6.88866 28.862 7.27973 28.7 7.6875 28.7ZM17.425 24.0875C17.425 23.6797 17.263 23.2886 16.9747 23.0003C16.6863 22.712 16.2953 22.55 15.8875 22.55C15.4797 22.55 15.0887 22.712 14.8003 23.0003C14.512 23.2886 14.35 23.6797 14.35 24.0875V35.3625C14.35 35.7702 14.512 36.1613 14.8003 36.4497C15.0887 36.738 15.4797 36.9 15.8875 36.9C16.2953 36.9 16.6863 36.738 16.9747 36.4497C17.263 36.1613 17.425 35.7702 17.425 35.3625V24.0875ZM24.0875 26.65C24.4953 26.65 24.8863 26.812 25.1747 27.1003C25.463 27.3886 25.625 27.7797 25.625 28.1875V35.3625C25.625 35.7702 25.463 36.1613 25.1747 36.4497C24.8863 36.738 24.4953 36.9 24.0875 36.9C23.6797 36.9 23.2887 36.738 23.0003 36.4497C22.712 36.1613 22.55 35.7702 22.55 35.3625V28.1875C22.55 27.7797 22.712 27.3886 23.0003 27.1003C23.2887 26.812 23.6797 26.65 24.0875 26.65ZM33.825 19.9875C33.825 19.5797 33.663 19.1886 33.3747 18.9003C33.0863 18.612 32.6953 18.45 32.2875 18.45C31.8797 18.45 31.4887 18.612 31.2003 18.9003C30.912 19.1886 30.75 19.5797 30.75 19.9875V35.3625C30.75 35.7702 30.912 36.1613 31.2003 36.4497C31.4887 36.738 31.8797 36.9 32.2875 36.9C32.6953 36.9 33.0863 36.738 33.3747 36.4497C33.663 36.1613 33.825 35.7702 33.825 35.3625V19.9875Z" fill="#3F3EED"/>
</svg>
