<svg width="49" height="50" viewBox="0 0 49 50" fill="none" xmlns="http://www.w3.org/2000/svg">
<path d="M12.244 6.49707H7.30408C5.99394 6.49707 4.73746 7.01752 3.81106 7.94393C2.88465 8.87034 2.3642 10.1268 2.3642 11.437V41.0763C2.3642 42.3864 2.88465 43.6429 3.81106 44.5693C4.73746 45.4957 5.99394 46.0162 7.30408 46.0162H21.3753M36.9434 28.7266V38.6063H46.8232M36.9434 21.3167V11.437C36.9434 10.1268 36.4229 8.87034 35.4965 7.94393C34.5701 7.01752 33.3136 6.49707 32.0035 6.49707H27.0636" stroke="#3F3EED" stroke-width="3" stroke-linecap="round" stroke-linejoin="round"/>
<path d="M12.2441 21.3167H22.1239M12.2441 31.1964H19.654M12.2441 6.49701C12.2441 5.18687 12.7646 3.9304 13.691 3.00399C14.6174 2.07758 15.8739 1.55713 17.184 1.55713H22.1239C23.434 1.55713 24.6905 2.07758 25.6169 3.00399C26.5433 3.9304 27.0638 5.18687 27.0638 6.49701C27.0638 7.80715 26.5433 9.06363 25.6169 9.99004C24.6905 10.9164 23.434 11.4369 22.1239 11.4369H17.184C15.8739 11.4369 14.6174 10.9164 13.691 9.99004C12.7646 9.06363 12.2441 7.80715 12.2441 6.49701ZM27.0638 38.6063C27.0638 41.2265 28.1047 43.7395 29.9575 45.5923C31.8103 47.4451 34.3233 48.486 36.9436 48.486C39.5638 48.486 42.0768 47.4451 43.9296 45.5923C45.7824 43.7395 46.8233 41.2265 46.8233 38.6063C46.8233 35.986 45.7824 33.473 43.9296 31.6202C42.0768 29.7674 39.5638 28.7265 36.9436 28.7265C34.3233 28.7265 31.8103 29.7674 29.9575 31.6202C28.1047 33.473 27.0638 35.986 27.0638 38.6063Z" stroke="#3F3EED" stroke-width="3" stroke-linecap="round" stroke-linejoin="round"/>
</svg>
