<svg width="41" height="41" viewBox="0 0 41 41" fill="none" xmlns="http://www.w3.org/2000/svg">
<path d="M30.75 20.5C29.8104 20.5 29.0417 21.2687 29.0417 22.2083V31.1258C29.0417 32.0654 28.2729 32.8341 27.3333 32.8341H10.25C9.31042 32.8341 8.54167 32.0654 8.54167 31.1258V13.6666C8.54167 12.727 9.31042 11.9583 10.25 11.9583H18.7917C19.7312 11.9583 20.5 11.1895 20.5 10.25C20.5 9.31038 19.7312 8.54163 18.7917 8.54163H8.54167C6.6625 8.54163 5.125 10.0791 5.125 11.9583V32.4583C5.125 34.3375 6.6625 35.875 8.54167 35.875H29.0417C30.9208 35.875 32.4583 34.3375 32.4583 32.4583V22.2083C32.4583 21.2687 31.6896 20.5 30.75 20.5ZM35.9092 8.54163H32.4583V5.09079C32.4583 4.16829 31.7067 3.41663 30.7842 3.41663H30.7329C29.7933 3.41663 29.0417 4.16829 29.0417 5.09079V8.54163H25.6079C24.6854 8.54163 23.9337 9.29329 23.9167 10.2158V10.267C23.9167 11.2066 24.6683 11.9583 25.6079 11.9583H29.0417V15.392C29.0417 16.3145 29.7933 17.0833 30.7329 17.0662H30.7842C31.7067 17.0662 32.4583 16.3145 32.4583 15.392V11.9583H35.9092C36.8317 11.9583 37.5833 11.2066 37.5833 10.2841V10.2158C37.5833 9.29329 36.8317 8.54163 35.9092 8.54163Z" fill="#3F3EED"/>
<path d="M23.9167 15.375H13.6667C12.7271 15.375 11.9583 16.1438 11.9583 17.0833C11.9583 18.0229 12.7271 18.7917 13.6667 18.7917H23.9167C24.8563 18.7917 25.625 18.0229 25.625 17.0833C25.625 16.1438 24.8563 15.375 23.9167 15.375ZM23.9167 20.5H13.6667C12.7271 20.5 11.9583 21.2688 11.9583 22.2083C11.9583 23.1479 12.7271 23.9167 13.6667 23.9167H23.9167C24.8563 23.9167 25.625 23.1479 25.625 22.2083C25.625 21.2688 24.8563 20.5 23.9167 20.5ZM23.9167 25.625H13.6667C12.7271 25.625 11.9583 26.3938 11.9583 27.3333C11.9583 28.2729 12.7271 29.0417 13.6667 29.0417H23.9167C24.8563 29.0417 25.625 28.2729 25.625 27.3333C25.625 26.3938 24.8563 25.625 23.9167 25.625Z" fill="#3F3EED"/>
</svg>
