<svg width="41" height="41" viewBox="0 0 41 41" fill="none" xmlns="http://www.w3.org/2000/svg">
<path d="M11.8559 8.54167C11.8554 9.44782 11.495 10.3167 10.8539 10.9571C10.2129 11.5975 9.34364 11.9571 8.43748 11.9566C7.53132 11.9562 6.66246 11.5958 6.02203 10.9547C5.3816 10.3136 5.02207 9.44441 5.02252 8.53825C5.02298 7.63209 5.38338 6.76323 6.02445 6.1228C6.66552 5.48237 7.53474 5.12284 8.4409 5.12329C9.34705 5.12374 10.2159 5.48415 10.8563 6.12522C11.4968 6.76629 11.8563 7.63551 11.8559 8.54167ZM11.9584 14.4867H5.12502V35.875H11.9584V14.4867ZM22.755 14.4867H15.9559V35.875H22.6867V24.6513C22.6867 18.3988 30.8354 17.8179 30.8354 24.6513V35.875H37.5834V22.3279C37.5834 11.7875 25.5225 12.1804 22.6867 17.3567L22.755 14.4867Z" fill="#3F3EED"/>
</svg>
