<svg width="41" height="41" viewBox="0 0 41 41" fill="none" xmlns="http://www.w3.org/2000/svg">
<path d="M23.9167 5.125V11.9583C23.9167 12.4114 24.0966 12.8459 24.417 13.1663C24.7374 13.4867 25.1719 13.6667 25.625 13.6667H32.4583" stroke="#3F3EED" stroke-width="2.5" stroke-linecap="round" stroke-linejoin="round"/>
<path d="M29.0417 35.875H11.9583C11.0522 35.875 10.1831 35.515 9.54237 34.8743C8.90163 34.2335 8.54166 33.3645 8.54166 32.4583V8.54167C8.54166 7.63551 8.90163 6.76647 9.54237 6.12572C10.1831 5.48497 11.0522 5.125 11.9583 5.125H23.9167L32.4583 13.6667V32.4583C32.4583 33.3645 32.0984 34.2335 31.4576 34.8743C30.8169 35.515 29.9478 35.875 29.0417 35.875Z" stroke="#3F3EED" stroke-width="2.5" stroke-linecap="round" stroke-linejoin="round"/>
<path d="M18.7917 21.3542C18.7917 20.6746 18.5217 20.0228 18.0411 19.5422C17.5606 19.0617 16.9088 18.7917 16.2292 18.7917C15.5495 18.7917 14.8978 19.0617 14.4172 19.5422C13.9366 20.0228 13.6667 20.6746 13.6667 21.3542V26.4792C13.6667 27.1588 13.9366 27.8106 14.4172 28.2911C14.8978 28.7717 15.5495 29.0417 16.2292 29.0417C16.9088 29.0417 17.5606 28.7717 18.0411 28.2911C18.5217 27.8106 18.7917 27.1588 18.7917 26.4792M22.2083 18.7917L24.7708 29.0417L27.3333 18.7917" stroke="#3F3EED" stroke-width="2.5" stroke-linecap="round" stroke-linejoin="round"/>
</svg>
