<svg width="48" height="55" viewBox="0 0 48 55" fill="none" xmlns="http://www.w3.org/2000/svg">
<path d="M2.664 0.833334C2.31534 0.831931 1.96981 0.899261 1.64718 1.03147C1.32456 1.16369 1.03115 1.35819 0.783739 1.60387C0.536328 1.84955 0.339765 2.14158 0.205285 2.46327C0.0708061 2.78496 0.00104844 3.13 0 3.47867V51.5213C0.00558573 52.2217 0.286448 52.8917 0.781914 53.3866C1.27738 53.8816 1.94767 54.1618 2.648 54.1667H45.352C45.7024 54.1642 46.0489 54.0927 46.3717 53.9563C46.6945 53.8199 46.9872 53.6211 47.2331 53.3715C47.479 53.1219 47.6734 52.8262 47.8049 52.5014C47.9365 52.1766 48.0028 51.8291 48 51.4787V14.1667L34.6667 0.833334H2.664ZM20 15.5H25.3333C25.3333 22.14 31.0507 29.26 38.176 31.636L36.9573 36.8067C28.5947 35.612 19.952 39.18 12.1467 44.3853L9 40.084C11.896 37.7667 14.6747 33.836 16.7333 29.2413C18.7867 24.6653 20 19.7053 20 15.5ZM21.6 31.4253C22.312 29.8333 22.944 28.1827 23.4773 26.5107C24.7503 28.4555 26.2806 30.219 28.0267 31.7533C25.408 32.2227 22.8453 32.9933 20.36 33.9747C20.8 33.1373 21.2133 32.2867 21.6 31.4253Z" fill="#3F3EED"/>
</svg>
